<?xml version="1.0" encoding="UTF-8"?>
<svg width="526px" height="408px" viewBox="0 0 526 408" version="1.1" xmlns="http://www.w3.org/2000/svg" xmlns:xlink="http://www.w3.org/1999/xlink" xmlns:sketch="http://www.bohemiancoding.com/sketch/ns">
    <!-- Generator: Sketch 3.3.2 (12043) - http://www.bohemiancoding.com/sketch -->
    <title>XMLID_1_</title>
    <desc>Created with Sketch.</desc>
    <defs></defs>
    <g id="Page-1" stroke="none" stroke-width="1" fill="none" fill-rule="evenodd" sketch:type="MSPage">
        <g id="5151e0c8492e5103c096af88a5006e1e" sketch:type="MSLayerGroup" transform="translate(7.000000, 7.000000)" stroke="#FFFFFF" stroke-width="15">
            <path d="M6.962,207.753 C29.552,202.112 60.267,194.429 114.08,193 C112.593,190.026 111.25,186.947 110.061,183.772 C89.121,183.59 24.631,186.564 2.54,192.022 C2.415,192.061 2.281,192.07 2.147,192.07 C1.408,192.07 0.727,191.562 0.545,190.814 C0.334,189.941 0.871,189.04 1.753,188.819 C23.643,183.409 86.578,180.406 108.871,180.464 C103.854,165.711 101.638,148.809 101.638,129.941 C101.638,96.425 112.075,83.782 126.098,65.921 C115.374,27.724 129.945,1.614 129.945,1.614 C129.945,1.614 152.478,-3.057 195.077,27.446 C218.166,17.556 279.724,16.732 308.847,25.25 C326.727,13.432 359.418,-3.335 372.617,1.355 C376.185,7.11 383.879,23.868 377.279,60.703 C381.768,68.78 405.04,85.989 405.135,134.631 C404.751,152.569 402.89,167.715 399.437,180.53 C454.977,180.06 487.649,184.645 510.152,188.789 C511.035,188.971 511.63,189.825 511.476,190.717 C511.323,191.504 510.632,192.07 509.865,192.07 C509.75,192.07 509.654,192.061 509.539,192.051 C487.073,187.888 454.345,183.322 398.478,183.83 C397.499,187.082 396.406,190.171 395.216,193.116 C414.229,193.749 466.449,195.783 509.039,208.809 C509.922,209.078 510.401,209.998 510.133,210.881 C509.922,211.581 509.27,212.041 508.56,212.041 C508.407,212.041 508.234,212.022 508.081,211.965 C464.896,198.766 411.543,196.953 393.798,196.367 C378.354,230.296 346.68,242.957 295.476,248.223 C312.071,258.669 316.829,271.771 316.829,307.226 C316.829,342.679 316.35,347.437 316.465,355.589 C316.638,368.972 336.244,375.378 335.516,379.685 C334.787,383.984 319.113,383.292 311.785,380.732 C291.027,373.5 293.098,356.232 293.098,356.232 L292.408,308.828 C292.408,308.828 293.828,283.312 284.408,283.312 L284.408,360.904 C284.408,377.767 296.207,382.89 296.207,389.125 C296.207,399.84 274.644,388.109 268.005,381.422 C257.871,371.254 259.023,349.692 259.272,332.637 C259.502,316.166 259.119,280.147 259.119,280.147 L252.242,280.292 C252.242,280.292 255.062,358.978 248.616,373.317 C240.281,391.725 215.139,398.057 215.139,389.672 C215.139,384.031 221.335,385.826 224.76,373.184 C227.685,362.43 226.688,282.209 226.688,282.209 C226.688,282.209 218.631,286.977 218.631,301.998 C218.631,308.875 218.439,348.156 218.439,359.85 C218.439,374.555 197.556,382.928 187.522,382.928 C182.438,382.928 176.117,382.68 176.117,379.985 C176.117,373.184 195.216,369.192 195.216,355.044 C195.216,342.776 194.947,311.218 194.947,311.218 C194.947,311.218 185.316,312.866 171.58,312.866 C136.952,312.866 125.997,290.766 120.788,278.401 C114.006,262.296 105.21,254.728 95.867,248.684 C90.131,244.972 88.807,240.588 95.445,239.341 C126.102,233.567 133.939,274.104 154.409,280.559 C169.018,285.174 187.8,283.178 197.143,277.135 C198.381,264.75 207.302,254.046 214.736,248.406 C162.669,243.408 131.8,225.327 115.8,196.261 C61.334,197.566 30.428,205.297 7.771,210.956 C6.121,211.369 4.51,211.771 2.956,212.165 C2.822,212.193 2.687,212.203 2.553,212.203 C1.814,212.203 1.143,211.704 0.951,210.956 C0.73,210.074 1.277,209.172 2.16,208.951 C3.72,208.567 5.322,208.175 6.962,207.753 L6.962,207.753 Z" id="XMLID_1_" sketch:type="MSShapeGroup"></path>
        </g>
    </g>
</svg>